<svg width="32" height="32" viewBox="0 0 32 32" fill="none" xmlns="http://www.w3.org/2000/svg">
<path d="M16 28.72C15.6045 28.721 15.2127 28.6437 14.8471 28.4927C14.4816 28.3417 14.1495 28.1198 13.87 27.84L3.57 17.54C2.75634 16.7175 2.11449 15.7413 1.68185 14.6683C1.2492 13.5952 1.03442 12.4469 1.05 11.29C1.05784 10.2298 1.27476 9.18165 1.68833 8.20545C2.10191 7.22926 2.70401 6.34424 3.46015 5.60111C4.21629 4.85797 5.11161 4.27131 6.09484 3.87474C7.07806 3.47816 8.12986 3.27946 9.19 3.29001C10.2691 3.27914 11.3394 3.48508 12.3374 3.89563C13.3355 4.30618 14.2409 4.91297 15 5.68001L16 6.68001L16.82 5.86001C18.2359 4.40658 20.1306 3.51552 22.1531 3.35188C24.1756 3.18824 26.1888 3.76311 27.82 4.97001C28.7485 5.68506 29.514 6.58973 30.0656 7.62377C30.6171 8.65781 30.942 9.79749 31.0187 10.9669C31.0953 12.1363 30.9219 13.3087 30.51 14.4059C30.0982 15.503 29.4573 16.4999 28.63 17.33L18.13 27.84C17.8505 28.1198 17.5184 28.3417 17.1529 28.4927C16.7873 28.6437 16.3955 28.721 16 28.72ZM9.15 5.28001C7.56052 5.27839 6.03276 5.89523 4.89 7.00001C4.3074 7.56055 3.84409 8.23306 3.5279 8.97714C3.21171 9.72122 3.04915 10.5215 3.05 11.33C3.04124 12.2193 3.20909 13.1015 3.54382 13.9255C3.87855 14.7494 4.37351 15.4988 5 16.13L15.3 26.43C15.393 26.5237 15.5036 26.5981 15.6254 26.6489C15.7473 26.6997 15.878 26.7258 16.01 26.7258C16.142 26.7258 16.2727 26.6997 16.3946 26.6489C16.5164 26.5981 16.627 26.5237 16.72 26.43L27.23 15.91C27.8469 15.28 28.3236 14.5267 28.6286 13.6994C28.9337 12.8721 29.0602 11.9897 29 11.11C28.9466 10.2213 28.7018 9.35467 28.2824 8.56936C27.863 7.78405 27.2789 7.09863 26.57 6.56001C25.3261 5.6429 23.7913 5.20926 22.2514 5.33989C20.7115 5.47051 19.2716 6.15649 18.2 7.27001L16.71 8.80001C16.617 8.89374 16.5064 8.96813 16.3846 9.0189C16.2627 9.06967 16.132 9.09581 16 9.09581C15.868 9.09581 15.7373 9.06967 15.6154 9.0189C15.4936 8.96813 15.383 8.89374 15.29 8.80001L13.59 7.10001C12.4191 5.93928 10.8387 5.28558 9.19 5.28001H9.15Z" fill="#9F0202"/>
</svg>
